<svg class="w-28" xmlns="http://www.w3.org/2000/svg" fill="none" viewBox="0 0 112 34"><path fill="#fff" d="M93.4 16.6c0 5.9-3.3 10.2-8.4 10.2-2.2 0-4.2-1-5.6-2.9v9.7h-4.9V6.8H79v2.9a7 7 0 0 1 6-3.3c5 0 8.4 4.4 8.4 10.2Zm-5 0c0-3.7-2.1-5.6-4.5-5.6s-4.4 1.9-4.4 5.6c0 3.7 2 5.7 4.4 5.7 2.4 0 4.4-2 4.4-5.7ZM72.5 16.6c0 5.9-3.3 10.2-8.4 10.2-2.2 0-4.1-1-5.5-2.9v9.7h-5V6.8h4.6v2.9a7 7 0 0 1 6-3.3c5 0 8.3 4.4 8.3 10.2Zm-5 0c0-3.7-2-5.6-4.5-5.6-2.4 0-4.4 1.9-4.4 5.6 0 3.7 2 5.7 4.4 5.7 2.4 0 4.5-2 4.5-5.7ZM42.2 26.8c-5.7 0-9.5-4-9.5-10.2 0-6 4-10.2 9.4-10.2 6 0 10 5 9 11.5H37.9c.3 3.2 1.8 5 4.3 5 2.1 0 3.6-1.1 4.2-3.1H51c-1 4.5-4.3 7-9 7ZM42 10.2c-2.3 0-3.7 1.5-4.2 4.4H46c-.2-2.7-1.7-4.4-4-4.4ZM31.5 21.5V26c-1.2.6-2.3.8-3.8.8-3.9 0-6.3-2.3-6.3-6.7v-9h-3.8V6.9h3.8V1h4.9v5.8h5.4v4.4h-5.4v7.7c0 2.3 1 3.2 2.8 3.2a5 5 0 0 0 2.4-.6ZM9 26.8c5.3 0 8.2-2.6 8.2-6.6 0-2.9-1.9-4.6-5.6-5.4L8 14.1c-1.7-.3-2.5-.8-2.5-2s1.2-2 3-2c2.1 0 3.5 1.3 3.7 3.2h4.7c-.4-4.3-3.6-6.9-8.4-6.9C3.8 6.4.8 9 .8 12.6c0 3 2 5 5.4 5.6l3.4.7c1.9.4 2.6.9 2.6 2.1 0 1.4-1.3 2-3.2 2v3.8ZM103 6.4c-5.2 0-8.2 2.6-8.2 6.6 0 2.9 2 4.6 5.6 5.4l3.6.7c1.7.3 2.5.8 2.5 2s-1.2 2-3 2c-2 0-3.5-1.3-3.6-3.2h-4.7c.3 4.3 3.6 6.9 8.3 6.9 4.7 0 7.7-2.6 7.7-6.2 0-3-2-5-5.4-5.7l-3.4-.6c-1.8-.4-2.6-1-2.6-2.2 0-1.3 1.4-2 3.2-2V6.4Z"></path><path fill="#00C5CC" fill-rule="evenodd" d="M3.9 22.8H2v1.9H4v-1.9Zm106-14.3H108v1.9h1.8V8.5ZM106 6.4v6.2h6V6.4h-6ZM0 20.7v6.2h6v-6.2H0Z" clip-rule="evenodd"></path></svg>